<svg xmlns="http://www.w3.org/2000/svg" viewBox="0 0 72 72">
  <style>
    .am-st{fill:none;stroke:#fff;stroke-width:5.5;stroke-linecap:round;stroke-linejoin:round}
    .am-fl{fill:#fff}
  </style>
  <rect width="72" height="72" rx="36" fill="#000"/>
  <defs>
    <clipPath id="cl"><circle cx="19" cy="44" r="10.7"/></clipPath>
    <clipPath id="cr"><circle cx="53" cy="44" r="10.7"/></clipPath>
  </defs>
  <path class="am-st" d="M9.54 35.09L13.5 21Q14 18 17 18H21Q24 18 24.5 21L28.46 35.09"/>
  <path class="am-st" d="M62.46 35.09L58.5 21Q58 18 55 18H51Q48 18 47.5 21L43.54 35.09"/>
  <path class="am-st" d="M25.5 27H46.5M31.85 42H40.15"/>
  <circle class="am-st" cx="19" cy="44" r="13"/>
  <circle class="am-st" cx="53" cy="44" r="13"/>
  <circle class="am-fl" cx="19" cy="44" r="4.8"/>
  <circle class="am-fl" cx="53" cy="44" r="4.8"/>
  <g clip-path="url(#cl)"><g transform="translate(0 -13)"><rect class="am-fl" x="0" y="10" width="40" height="32"/></g></g>
  <g clip-path="url(#cr)"><g transform="translate(0 -13)"><rect class="am-fl" x="32" y="10" width="40" height="32"/></g></g>
</svg>
